<?xml version="1.0" encoding="UTF-8"?>
<svg id="Layer_1" data-name="Layer 1" xmlns="http://www.w3.org/2000/svg" viewBox="0 0 191.92 250.49">
  <path d="M103.1,249.13c-8.25,2.34-17.08,1.63-24.88-1.98-7.72-3.58-13.94-9.76-17.49-17.4-1.87-4.02-5.36-7.07-9.6-8.38-2.94-.91-6.05-.94-8.96-.11-1.29.36-2.53.89-3.7,1.58-1.89,1.11-3.9,1.97-5.99,2.57-13.54,3.83-27.68-4.06-31.52-17.61-3.04-10.75,1.18-22.11,10.51-28.27,5.38-3.55,8.05-10.03,6.73-16.34-3.36-16.17,6.46-32.36,22.37-36.86.26-.07.51-.14.77-.21.13-.03.25-.07.38-.1,5.6-1.58,9.87-6.13,11.1-11.84.07-.33.15-.66.23-1,1.69-7.02-1.62-14.29-8.02-17.63-7.23-3.77-12.66-10.46-14.89-18.33-2.11-7.47-1.25-15.36,2.44-22.22,3.68-6.85,9.76-11.92,17.11-14.28,5.83-1.87,10.04-6.95,10.8-13.02.52-4.17,1.87-8.16,4.01-11.86,4.14-7.18,10.82-12.38,18.79-14.64,16.79-4.75,34.32,5.04,39.07,21.83.41,1.43.71,2.9.92,4.35.81,5.82,4.79,10.7,10.32,12.66,3.13,1.11,6.47,1.18,9.55.31,2.36-.67,4.58-1.89,6.45-3.63,2.93-2.73,6.38-4.67,10.26-5.77,13.36-3.78,27.3,4.01,31.09,17.37s-4.01,27.3-17.37,31.09c-1.62.46-3.28.76-4.94.88-1.06.08-2.09.27-3.08.55-4.71,1.33-8.6,4.82-10.4,9.5-2.18,5.67-.9,12.09,3.29,16.49,4.4,4.62,7.66,10.38,9.44,16.64,5.99,21.15-6.35,43.23-27.5,49.22-1.51.43-3.04.77-4.56,1.02-.6.1-1.18.23-1.75.39-4.31,1.22-7.92,4.23-9.89,8.31-2.23,4.63-2.06,10.05.45,14.53,1.38,2.47,2.48,5.1,3.25,7.82,5.4,19.07-5.72,38.98-24.8,44.38Z" fill="#7fbce7" stroke-width="0"/>
</svg>