<?xml version="1.0" encoding="UTF-8"?>
<svg id="Layer_1" data-name="Layer 1" xmlns="http://www.w3.org/2000/svg" viewBox="0 0 333.85 286.29">
  <path d="M78.42,283.16c-10.66-4.06-19.53-11.82-24.98-21.87-5.4-9.96-7.13-21.49-4.86-32.46,1.19-5.78-.11-11.8-3.59-16.57-2.41-3.31-5.72-5.8-9.47-7.23-1.66-.63-3.41-1.06-5.21-1.25-2.9-.31-5.73-.99-8.43-2.01-17.5-6.66-26.32-26.32-19.66-43.82,5.29-13.89,18.82-22.66,33.67-21.83,8.56.48,16.55-4.31,20.16-12.09,9.25-19.93,32.59-29.41,53.15-21.59.33.13.66.26.99.39.16.07.32.13.48.19,7.23,2.75,15.41,1.29,21.25-3.83.34-.3.68-.59,1.03-.88,7.38-6.15,9.62-16.54,5.44-25.19-4.72-9.77-5.21-21.21-1.34-31.39,3.67-9.65,10.86-17.39,20.25-21.78,9.37-4.39,19.88-4.98,29.6-1.66,7.7,2.63,16.23.55,21.87-5.32,3.87-4.03,8.48-7.22,13.69-9.48,10.12-4.38,21.37-4.63,31.68-.7,21.7,8.26,32.63,32.63,24.38,54.33-.7,1.85-1.54,3.66-2.48,5.37-3.75,6.85-3.38,15.22.97,21.71,2.46,3.67,5.96,6.4,9.95,7.92,3.06,1.16,6.39,1.62,9.76,1.24,5.29-.59,10.52.08,15.53,1.99,17.26,6.57,25.96,25.96,19.39,43.22-6.57,17.26-25.96,25.96-43.22,19.39-2.09-.8-4.11-1.8-5.98-2.98-1.19-.75-2.44-1.37-3.73-1.86-6.09-2.32-13.01-1.69-18.65,1.88-6.83,4.33-10.56,12.2-9.58,20.22,1.03,8.43-.06,17.16-3.14,25.25-10.4,27.33-41.1,41.11-68.43,30.71-1.95-.74-3.85-1.59-5.67-2.53-.71-.37-1.44-.69-2.18-.98-5.57-2.12-11.81-1.78-17.16,1.02-6.05,3.17-10.18,9.09-11.05,15.87-.48,3.73-1.4,7.41-2.74,10.93-9.38,24.65-37.06,37.07-61.71,27.69Z" fill="#7fbce7" stroke-width="0"/>
</svg>