<?xml version="1.0" encoding="UTF-8"?>
<svg id="Layer_1" data-name="Layer 1" xmlns="http://www.w3.org/2000/svg" viewBox="0 0 288.61 250.35">
  <path d="M79.64,219.56c-15.01-9.22-21.34-27.84-15.05-44.28,2.4-6.28,1.47-13.35-2.49-18.79-5.38-7.39-8.1-16.49-7.68-25.62.27-5.74-1.96-11.32-6.12-15.29-1.02-.98-2.14-1.84-3.32-2.56-3.63-2.23-7.92-3.25-12.23-2.86-6.48.6-12.87-.9-18.47-4.34C.19,97.15-4.23,78.64,4.43,64.54c5.35-8.7,14.67-14.04,24.95-14.28,9.5-.22,17.51-7.13,19.12-16.49.88-5.1,2.72-9.95,5.47-14.43C65.69.26,90.76-5.72,109.84,6c16.2,9.95,23.37,30.18,17.05,48.1-1.81,5.15-1.43,10.81,1.06,15.67,1.68,3.27,4.21,5.98,7.28,7.86,1.49.92,3.11,1.64,4.83,2.14,3.48,1.02,6.79,2.48,9.85,4.37s6.09,4.34,8.61,7.08c1.25,1.36,2.67,2.52,4.21,3.46,3.82,2.35,8.38,3.36,12.93,2.78,4.7-.6,9.44-.39,14.07.64,7.73,1.72,15.73-1.32,20.38-7.72,13.22-18.21,38.62-23.24,57.83-11.44,20.39,12.53,26.79,39.32,14.26,59.71-7.8,12.7-21.41,20.42-36.4,20.66-6.79.11-13.06,3.68-16.61,9.46-3.56,5.79-3.91,12.99-.94,19.1,6.56,13.48,5.82,29.11-1.99,41.81-12.53,20.39-39.31,26.79-59.71,14.26-7.14-4.39-12.84-10.77-16.49-18.45-1.67-3.51-4.31-6.42-7.55-8.41-1.69-1.04-3.55-1.83-5.51-2.33-5.73-1.46-11.82-.28-16.6,3.21-3.99,2.91-8.51,4.96-13.41,6.09-9.41,2.16-19.12.56-27.35-4.49Z" fill="#7fbce7" stroke-width="0"/>
</svg>