<?xml version="1.0" encoding="UTF-8"?>
<svg id="Layer_1" data-name="Layer 1" xmlns="http://www.w3.org/2000/svg" viewBox="0 0 272.68 231.96">
  <path d="M59.88,47.81c8.23-6.42,19.14-7.68,28.49-3.3,5.81,2.72,12.56,2.49,18.17-.62,2.99-1.66,6.12-3.12,9.31-4.33,1.88-.72,3.62-1.71,5.16-2.91,3.66-2.86,6.27-6.94,7.26-11.61,1.33-6.26,4.87-11.9,9.99-15.89,11.04-8.62,26.74-7.57,36.52,2.42,3.72,3.8,8.79,5.96,14.11,6.01,4.54.04,8.92-1.46,12.46-4.23.61-.48,1.19-.99,1.75-1.53,1.14-1.13,2.36-2.2,3.63-3.19,17.76-13.85,43.47-10.68,57.33,7.08,13.85,17.76,10.68,43.47-7.08,57.33-6.37,4.97-13.94,7.92-21.89,8.53-3.94.3-7.68,1.76-10.77,4.17-.69.54-1.35,1.13-1.98,1.77-.66.68-1.36,1.33-2.08,1.95-4.52,3.9-7.05,9.62-6.91,15.59.04,1.53.02,3.09-.04,4.63-.2,4.91,1.42,9.73,4.54,13.52.19.23.38.46.56.7,11.83,15.16,9.12,37.11-6.04,48.93-1.05.82-2.15,1.58-3.29,2.28-.66.4-1.29.84-1.88,1.3-5.31,4.14-8.22,10.74-7.6,17.55.3,3.28.13,6.59-.5,9.82-1.6,8.25-6.14,15.65-12.77,20.83-13.03,10.16-31.58,9.75-44.12-.99-5.73-4.9-13.73-6.17-20.68-3.27-11.39,4.75-24.66,1.27-32.25-8.46-7.43-9.52-7.72-23.04-.7-32.88,5.38-7.54,4.87-17.8-1.23-24.77-.9-1.03-1.79-2.1-2.64-3.19-.15-.19-.3-.39-.45-.58-3-3.92-7.35-6.59-12.2-7.5-.49-.09-.99-.19-1.47-.31-5.49-1.27-11.26-.16-15.89,3.06-15.17,10.54-35.97,7.38-47.35-7.21-11.83-15.16-9.12-37.11,6.04-48.93,5.29-4.13,11.61-6.63,18.27-7.24,3.92-.36,7.52-1.85,10.47-4.14,3.94-3.07,6.69-7.59,7.47-12.8.03-.17.05-.33.08-.5,1.14-6.78,4.76-12.85,10.19-17.09Z" fill="#7fbce7" stroke-width="0"/>
</svg>