<?xml version="1.0" encoding="UTF-8"?>
<svg id="Layer_1" data-name="Layer 1" xmlns="http://www.w3.org/2000/svg" viewBox="0 0 224.55 247.1">
  <path d="M153.48,36.6c13.08,7.06,21.9,20.04,23.59,34.71.8,6.95,4.97,12.95,10.95,16.18,1.38.75,2.86,1.34,4.42,1.77,3.16.87,6.24,2.12,9.17,3.69,21.21,11.45,29.15,38.02,17.7,59.23-7.46,13.82-21.81,22.62-37.44,22.96-5.82.13-11.32,2.65-15.22,6.96-3.9,4.32-5.85,10.05-5.38,15.85.71,8.85-1.12,17.59-5.27,25.28-11.9,22.05-39.52,30.3-61.57,18.4-14.13-7.63-23.05-21.69-23.84-37.61-.37-7.47-4.64-14.08-11.06-17.54-1.11-.6-2.29-1.11-3.52-1.51-2.6-.85-5.15-1.94-7.57-3.24-22.05-11.9-30.3-39.52-18.4-61.57.71-1.31,1.49-2.6,2.31-3.83,3.37-5,4.44-11.2,2.95-17.04-1.46-5.72-5.25-10.57-10.44-13.37-.11-.06-.21-.11-.32-.17-.23-.12-.46-.24-.69-.36C1.8,73.52-6.45,45.89,5.45,23.85S44.97-6.45,67.02,5.45c7.65,4.13,13.92,10.32,18.12,17.88.33.59.65,1.19.95,1.79,2.01,4.04,5.15,7.16,8.86,9.16,5.56,3,12.4,3.48,18.59.74,2.77-1.22,5.67-2.17,8.63-2.82,10.62-2.33,21.74-.77,31.32,4.4Z" fill="#7fbce7" stroke-width="0"/>
</svg>