<?xml version="1.0" encoding="UTF-8"?>
<svg id="Layer_1" data-name="Layer 1" xmlns="http://www.w3.org/2000/svg" viewBox="0 0 65.04 101.16">
  <path d="M19.9,3.25c-3.51,1.4-3.8,1-6.89,3.18s-3.29,2.4-4.84,5.94-.62,3.78-.76,7.71c-.13,3.63-.36,3.61-.34,7.24s.07,3.62-.06,7.24,1.1,3.82.24,7.35c-.94,3.87-2.47,3.38-3.65,7.19-.55,1.77-.42,1.86.08,3.65,1.13,4.12,2.66,3.65,3.55,7.83,1.04,4.87-.43,5.06-.44,10.04s-.16,4.97.08,9.95c.18,3.96-.63,4.28.85,7.96s1.33,4.48,4.54,6.8c3.17,2.29,3.94,1.06,7.71,2.13" fill="none" stroke="#2b496d" stroke-linecap="round" stroke-linejoin="round" stroke-width="6.5"/>
  <path d="M45.43,3.63c3.75,1.06,4.54-.39,7.71,1.89s2.59,3.2,3.89,6.93.69,3.74.88,7.62c.18,3.62.32,3.61.54,7.23s.3,3.63.43,7.26-1.09,3.72-.46,7.29c.73,4.15,1.43,3.99,2.64,8.02.42,1.4,1.01,1.3.59,2.7-1.24,4.22-2.77,3.73-3.51,8.07-.84,4.91.8,4.98.95,9.97s.08,4.99-.37,9.95c-.36,3.94.04,4.11-1.64,7.7s-1.83,3.42-4.81,5.8-3.23,2.16-6.76,3.86" fill="none" stroke="#2b496d" stroke-linecap="round" stroke-linejoin="round" stroke-width="6.5"/>
</svg>