<?xml version="1.0" encoding="UTF-8"?>
<svg id="Layer_1" data-name="Layer 1" xmlns="http://www.w3.org/2000/svg" viewBox="0 0 83.63 71.35">
  <path d="M62.49,68.1c-.34,0-.72,0-1.15-.02-1.65-.05-2.37-.21-3.28-.42-1.02-.23-2.17-.49-4.34-.59-.98-.05-1.72-.06-2.34-.06-.9,0-1.55.04-2.28.08-.82.04-1.67.09-3.2.09h-.15c-1.79,0-2.67-.05-3.61-.1-.96-.05-1.96-.11-3.89-.12h-.45c-1.8,0-2.78.08-3.72.15-.9.07-1.75.14-3.47.14-1.62,0-2.37-.14-3.23-.31-.99-.19-2.11-.4-4.11-.4h-.44c-2.21.04-3.29.16-4.34.27-.85.09-1.73.19-3.41.25-1.77.07-2.93.32-3.77.51-.58.13-.88.19-1.21.19-.41,0-.96-.1-1.69-.29-.48-.13-.92-.24-1.31-.34q-2.12-.54-3.04-2.19t-.35-3.99c.1-.36.21-.75.32-1.18.41-1.54.68-1.81,1.48-2.61.7-.69,1.65-1.64,2.73-3.36,1.2-1.92,1.69-3.03,2.13-4.01.41-.91.75-1.7,1.75-3.26,1.01-1.58,1.58-2.23,2.24-2.98.7-.8,1.5-1.7,2.72-3.55,1.26-1.9,1.81-2.91,2.34-3.88.47-.86.92-1.68,1.93-3.24.79-1.23,1.31-2.01,1.75-2.67.81-1.22,1.34-2.02,2.75-4.32.93-1.51,1.49-2.27,2.03-3.01.68-.92,1.38-1.88,2.58-3.95,1.17-2.02,1.58-3.22,1.95-4.28.33-.95.59-1.69,1.5-3.22.87-1.46,1.32-2.5,1.69-3.33.53-1.21.75-1.71,2.19-3.06q1.93-1.8,4.25-1.8c1.11,0,1.37.11,1.38.12.12.07.51.47.79.77.4.42.9.94,1.57,1.55,1.53,1.4,1.77,1.87,2.34,3,.38.77.86,1.72,1.75,3.09,1.21,1.88,1.66,2.68,2.23,3.71.45.81.96,1.73,1.92,3.31,1.27,2.1,2.3,3.08,3.13,3.86.71.68,1.23,1.16,2.04,2.58.87,1.51,1.21,2.32,1.58,3.18.45,1.08.92,2.2,2.21,4.27l.45.72c1.73,2.8,1.92,3.09,4.1,6.31,1.33,1.97,1.73,2.73,2.32,3.87.38.74.86,1.65,1.66,3.06,1.06,1.84,1.71,2.79,2.29,3.62.6.87,1.11,1.61,2.08,3.35.73,1.32,1.28,2.16,1.72,2.84.75,1.15,1.09,1.68,1.78,3.86.2.64.38,1.18.54,1.65q.63,1.85.1,3.78c-.03.11-.06.2-.08.27-.24.04-.58.07-.85.1-.89.08-2.1.2-3.49.61-2.78.81-2.97.81-5.32.88l-1.41.04c-1.76.06-2.83.19-3.68.28-.86.1-1.48.17-2.66.17Z" fill="#5298cc" stroke-width="0"/>
  <path d="M41.98,6.5c.4.41.93.96,1.61,1.58,1.09,1,1.15,1.12,1.63,2.07.4.79.94,1.87,1.92,3.39,1.15,1.8,1.58,2.56,2.13,3.53.46.83.99,1.78,1.98,3.4,1.5,2.47,2.75,3.66,3.67,4.53.63.59.88.84,1.46,1.84.77,1.33,1.05,1.99,1.39,2.81.48,1.14,1.02,2.44,2.44,4.73l.46.74c1.76,2.84,1.94,3.14,4.16,6.41,1.23,1.81,1.55,2.43,2.13,3.54.4.76.89,1.71,1.73,3.18,1.12,1.95,1.81,2.96,2.43,3.85.57.83,1.02,1.48,1.91,3.09.79,1.42,1.39,2.35,1.84,3.03.67,1.03.85,1.3,1.4,3.06.21.67.4,1.23.57,1.73,0,.03.02.06.03.09-.66.11-1.4.26-2.19.49q-2.38.69-4.5.75c-.42.01-.89.03-1.44.04-1.9.07-3.03.2-3.94.3-.81.09-1.29.15-2.28.15-.31,0-.65,0-1.04-.02-1.34-.04-1.84-.15-2.66-.34-1.09-.25-2.45-.55-4.91-.67-.95-.04-1.77-.07-2.49-.07-1.01,0-1.75.04-2.46.08-.78.04-1.59.09-3.03.09h-.15c-1.7,0-2.5-.05-3.42-.1-.96-.05-2.04-.12-4.05-.13h-.47c-1.93,0-3.02.09-3.99.17-.87.07-1.62.13-3.2.13h-.06c-1.27,0-1.79-.1-2.58-.25-1.07-.2-2.41-.46-4.72-.46-.16,0-.32,0-.48,0-2.36.03-3.53.16-4.65.29-.83.09-1.61.18-3.17.24-2.07.08-3.45.38-4.36.59-.18.04-.41.09-.53.11-.09,0-.33-.04-.82-.18-.5-.14-.95-.25-1.36-.36-.24-.06-.52-.13-.75-.19-.07-.11-.15-.25-.25-.43-.14-.25-.24-.45-.31-.59.07-.28.17-.63.26-.94.1-.37.21-.77.33-1.22.11-.43.2-.65.24-.73.08-.09.26-.27.4-.41.76-.76,1.92-1.91,3.19-3.94,1.32-2.11,1.89-3.39,2.35-4.41.38-.86.66-1.47,1.52-2.83.87-1.37,1.32-1.88,1.94-2.59.73-.83,1.64-1.87,2.98-3.89,1.34-2.02,1.95-3.13,2.49-4.11.44-.81.86-1.57,1.81-3.04.79-1.21,1.3-1.99,1.73-2.64.79-1.2,1.37-2.07,2.81-4.41.86-1.4,1.36-2.07,1.88-2.78.73-.99,1.49-2.02,2.78-4.26,1.32-2.29,1.81-3.7,2.21-4.83.3-.86.48-1.38,1.22-2.62.97-1.63,1.5-2.83,1.88-3.7.44-1.02.48-1.1,1.43-1.99.25-.23.68-.63.99-.91.21,0,.52-.02.97-.02M42.05,0c-3.48,0-3.92.29-6.47,2.67-3.02,2.82-2.33,3.55-4.45,7.1-2.12,3.55-1.41,3.95-3.48,7.54-2.06,3.57-2.41,3.37-4.57,6.88-2.16,3.51-2.22,3.47-4.46,6.93-2.24,3.47-1.97,3.65-4.25,7.09-2.28,3.43-2.78,3.11-4.99,6.58-2.22,3.48-1.71,3.8-3.9,7.29-2.19,3.49-3.54,2.88-4.6,6.86-.96,3.64-1.5,4.29.33,7.58,1.84,3.29,2.7,3.1,6.34,4.09,1.1.3,1.89.41,2.54.41,1.55,0,2.4-.61,5.1-.71,3.84-.14,3.83-.47,7.67-.52.14,0,.27,0,.39,0,3.45,0,3.58.7,7.29.71.02,0,.04,0,.07,0,3.63,0,3.79-.3,7.18-.3.14,0,.28,0,.43,0,3.78.03,3.84.23,7.52.23.05,0,.11,0,.16,0,2.92,0,3.62-.17,5.48-.17.58,0,1.28.02,2.19.06,3.85.18,3.82.89,7.66,1.01.47.01.88.02,1.25.02,2.65,0,3.08-.34,6.45-.46,3.84-.13,3.84.02,7.53-1.05,3.55-1.03,5.68.3,6.65-3.23.97-3.52.42-3.78-.67-7.26-1.23-3.94-1.75-3.7-3.76-7.3-2.01-3.62-2.33-3.43-4.38-7.02-2.05-3.58-1.8-3.72-4.11-7.14-2.32-3.42-2.3-3.41-4.47-6.93-2.18-3.51-1.66-3.79-3.73-7.37-2.06-3.57-3.07-2.97-5.2-6.49-2.14-3.52-1.96-3.61-4.19-7.08-2.23-3.47-1.57-3.95-4.62-6.74C45.4.92,45.55,0,42.06,0h-.01Z" fill="#2b496d" stroke-width="0"/>
</svg>