<?xml version="1.0" encoding="UTF-8"?>
<svg id="Layer_1" data-name="Layer 1" xmlns="http://www.w3.org/2000/svg" viewBox="0 0 83.97 71.85">
  <path d="M67.2,68.6c-.81,0-1.35-.06-2.03-.13-.88-.1-1.97-.21-3.81-.23-1.91-.01-2.81-.06-3.78-.11-.96-.05-1.95-.11-3.88-.13-.34,0-.65,0-.93,0-1.46,0-2.33.05-3.17.1-.81.05-1.57.09-2.93.09,0,0-1.5,0-1.85,0-1.46,0-2.27.03-3.21.07-.82.03-1.73.07-3.34.08-1.54.02-2.48.05-3.28.08-.71.03-1.31.05-2.19.05-.55,0-1.22,0-2.09-.03-1.7-.04-2.48-.18-3.38-.33-1-.17-2.14-.36-4.3-.42-1.11-.03-1.91-.04-2.58-.04-.9,0-1.55.02-2.37.05-.71.02-1.57.05-2.88.07-1.42.02-2.41.13-3.13.2-.48.05-.83.09-1.15.09-.39,0-.99-.05-2.37-.42-1.28-.34-2.31-.48-3.07-.58-.38-.05-.91-.12-1.05-.18,0,0-.21-.18-.62-.9q-.7-1.22-.1-2.67c.24-.58.54-1.31.84-2.21.55-1.63.88-1.99,1.61-2.78.65-.7,1.53-1.67,2.58-3.45,1.13-1.91,1.59-3.02,2-4,.38-.92.71-1.71,1.7-3.31,1.18-1.91,1.72-2.75,2.33-3.7.51-.8,1.07-1.66,2.07-3.26,1.36-2.18,1.87-3.08,2.52-4.22.41-.73.88-1.57,1.7-2.96,1.02-1.73,1.55-2.38,2.23-3.22.64-.78,1.36-1.67,2.48-3.38,1.51-2.32,2.01-3.18,2.75-4.48.39-.67.85-1.48,1.58-2.7.86-1.45,1.39-2.27,1.86-3,.68-1.06,1.26-1.97,2.47-4.15,1.04-1.88,1.38-3.27,1.62-4.28.26-1.09.34-1.42,1.41-2.43.3-.29.58-.56.84-.8q1.75-1.7,3.24-1.7c.16,0,.33,0,.5,0q1.3.04,2.38,1.3c.42.48.89,1.03,1.48,1.64,1.14,1.17,1.29,1.64,1.63,2.66.31.95.73,2.24,1.83,4.04.6.98,1.02,1.69,1.37,2.28.93,1.56,1.4,2.35,3.16,4.87,1.39,1.99,2.38,2.87,3.26,3.65.73.65,1.3,1.16,2.26,2.56,1.2,1.76,1.55,2.51,2.03,3.56.38.83.85,1.86,1.77,3.47,1.05,1.85,1.71,2.8,2.28,3.64.59.86,1.1,1.61,2.06,3.34.66,1.2,1.08,2,1.42,2.66.71,1.37,1.18,2.27,2.73,4.68,1.2,1.87,1.96,2.79,2.63,3.6.65.78,1.2,1.46,2.21,3.07,1.56,2.48,1.65,2.81,2.26,4.98.15.52.31,1.11.53,1.83.33,1.13.66,1.96.92,2.63.54,1.36.57,1.45.11,3.01,0,.02,0,.03-.01.05-.21.01-.47.02-.68.02-1.02.02-2.41.05-4.02.5l-.81.23c-2.8.79-2.85.8-6.06,1-.65.04-1.17.06-1.62.06Z" fill="#fdd940" stroke-width="0"/>
  <path d="M41.54,6.5c.09,0,.18,0,.27,0,.05.06.1.12.15.18.42.48.94,1.09,1.62,1.79q.62.63.87,1.41c.34,1.04.85,2.6,2.15,4.73.59.97,1.01,1.67,1.35,2.25,1.01,1.7,1.53,2.56,3.29,5.07,1.61,2.3,2.86,3.41,3.76,4.21.65.57,1,.89,1.73,1.96,1.05,1.53,1.3,2.08,1.76,3.09.41.88.91,1.98,1.9,3.72,1.12,1.97,1.82,2.98,2.43,3.88.57.82,1.01,1.48,1.89,3.07.64,1.16,1.04,1.92,1.39,2.6.8,1.53,1.33,2.52,2.88,4.94,1.3,2.03,2.16,3.07,2.85,3.91.6.73,1.07,1.3,1.97,2.74,1.31,2.08,1.32,2.12,1.89,4.13.15.53.32,1.14.54,1.87.2.66.39,1.23.57,1.73-.62.09-1.3.22-2.01.42l-.82.23q-2.52.71-5.38.89c-.55.03-1.02.05-1.42.05-.64,0-1.03-.04-1.68-.11-.95-.1-2.13-.23-4.14-.24-1.83-.01-2.66-.06-3.62-.11-.95-.05-2.02-.11-4.01-.14-.35,0-.67,0-.97,0-1.56,0-2.52.06-3.36.1-.79.05-1.48.09-2.75.09-.19,0-.4,0-.62,0-.46,0-.86,0-1.23,0-1.53,0-2.4.03-3.33.07-.83.03-1.69.06-3.25.08-1.58.02-2.57.05-3.36.08-.73.03-1.27.05-2.07.05-.53,0-1.17,0-2.01-.03-1.47-.04-2.07-.14-2.92-.28-1.05-.18-2.37-.4-4.76-.47-1.08-.03-1.93-.04-2.67-.04-.96,0-1.67.02-2.48.05-.7.02-1.54.05-2.82.07-1.57.02-2.64.14-3.42.22-.35.04-.65.07-.8.07-.11,0-.48-.03-1.53-.31-.94-.25-1.77-.41-2.46-.52.21-.52.44-1.12.68-1.84.33-.98.35-1,.92-1.63.7-.76,1.76-1.92,2.98-3.99,1.24-2.11,1.77-3.38,2.2-4.4.36-.85.61-1.47,1.47-2.85,1.17-1.9,1.7-2.72,2.31-3.67.51-.8,1.07-1.67,2.08-3.27,1.4-2.24,1.93-3.17,2.59-4.35.41-.72.87-1.54,1.67-2.9.89-1.51,1.32-2.03,1.95-2.82.65-.8,1.46-1.8,2.68-3.65,1.57-2.4,2.1-3.34,2.85-4.64.38-.66.83-1.45,1.55-2.66.83-1.4,1.33-2.17,1.8-2.91.71-1.1,1.32-2.05,2.58-4.32,1.26-2.26,1.67-3.97,1.94-5.1.03-.14.08-.33.11-.45.06-.07.18-.2.37-.38.31-.3.6-.57.86-.83.27-.26.58-.56.82-.78.05,0,.1,0,.16,0M41.54,0c-3.18,0-3.77.98-6.31,3.39-3,2.84-1.62,3.88-3.63,7.49-2.01,3.61-2.17,3.52-4.29,7.07-2.11,3.54-2,3.62-4.26,7.07-2.26,3.45-2.69,3.17-4.79,6.72-2.1,3.56-1.98,3.6-4.17,7.11-2.2,3.51-2.23,3.45-4.41,6.97-2.18,3.52-1.64,3.81-3.74,7.37-2.1,3.55-3.15,2.93-4.47,6.84-1.23,3.63-2.38,4.2-.48,7.53,1.87,3.29,3.07,2.19,6.72,3.18,1.53.41,2.42.54,3.22.54,1.14,0,2.06-.26,4.32-.29,2.77-.04,3.54-.12,5.2-.12.64,0,1.42.01,2.49.04,3.86.1,3.82.65,7.68.75.9.02,1.6.03,2.17.03,1.88,0,2.56-.1,5.5-.13,3.41-.04,3.79-.15,6.51-.15.35,0,.73,0,1.17,0,.24,0,.47,0,.68,0,2.89,0,3.33-.19,6.11-.19.27,0,.57,0,.89,0,3.84.05,3.83.22,7.67.25,3.11.02,3.71.36,5.86.36.51,0,1.1-.02,1.83-.06,3.84-.24,3.82-.31,7.53-1.34,3.58-1,5.92.76,6.97-2.78,1.07-3.63.03-3.85-1.04-7.47-1.17-3.96-.95-4.12-3.15-7.62-2.2-3.5-2.63-3.22-4.86-6.7-2.23-3.47-2.05-3.55-4.04-7.16-1.99-3.61-2.32-3.43-4.36-7.02-2.04-3.58-1.62-3.86-3.95-7.26-2.34-3.42-3.16-2.84-5.54-6.23-2.37-3.38-2.28-3.46-4.42-6.98-2.15-3.52-1.03-4.32-3.9-7.28C45.8,1.42,45.66.13,42.15.01c-.21,0-.42-.01-.61-.01h0Z" fill="#2b496d" stroke-width="0"/>
</svg>