<?xml version="1.0" encoding="UTF-8"?>
<svg id="Layer_1" data-name="Layer 1" xmlns="http://www.w3.org/2000/svg" viewBox="0 0 65.42 99.88">
  <path d="M25.71,20.7c-2.99,1.76-3.58,1.21-5.8,3.87s-1.71,3.28-2.28,6.88c-.55,3.39.28,3.37.46,6.8s.24,3.44-.34,6.82c-.45,2.68-1.18,2.38-2.14,4.92-.37.99-.02,1.02.2,2.05.54,2.55.92,2.41,1.38,4.98.56,3.09.4,3.13.48,6.27s-.27,3.12.29,6.21c.65,3.6-.75,4.42,1.51,7.3s3.46,1.54,6.52,3.42" fill="none" stroke="#2b496d" stroke-linecap="round" stroke-linejoin="round" stroke-width="6.5"/>
  <path d="M41.94,21.06c3.33,1.51,4.6.02,6.91,2.85,2.37,2.9.81,3.8,1.09,7.53.26,3.44-.2,3.38-.32,6.83-.12,3.43-.27,3.45.53,6.79.6,2.49,1.37,2.13,2.27,4.53.44,1.18.23,1.28-.17,2.48-.86,2.62-2.23,2.16-2.78,4.86-.62,3.08.49,3.22.49,6.37,0,3.14.23,3.14-.16,6.26-.46,3.68,1.13,4.47-1.07,7.46s-3.61,1.5-6.9,3.32" fill="none" stroke="#2b496d" stroke-linecap="round" stroke-linejoin="round" stroke-width="6.5"/>
</svg>