<?xml version="1.0" encoding="UTF-8"?>
<svg id="Layer_1" data-name="Layer 1" xmlns="http://www.w3.org/2000/svg" viewBox="0 0 72.28 101.11">
  <path d="M4.16,73.62c-1.74-3.25.07-3.76.04-7.44s-.15-3.78-.04-7.56-.03-3.79.15-7.56.57-3.76.72-7.54.3-3.79.31-7.57c0-3.56-3.88-6.12-.58-7.46,3.51-1.42,2.76,3.12,5.73,5.46,3.14,2.47,3.58,1.9,6.75,4.34s2.74,2.98,5.88,5.45,3.69,1.81,6.69,4.45,4.26,1.9,5.74,5.54c1.62,3.99-.52,4.41-.52,8.72s.25,4.38.14,8.76-.34,4.38-.29,8.77.6,4.38.61,8.77,3.28,6.35-.36,8.64c-3.24,2.04-3.52-1.79-6.57-4.1s-2.89-2.69-5.94-5.17-2.83-2.75-5.92-5.19-2.77-2.97-6.18-4.91-4.54-1-6.35-4.39Z" fill="#fdd940" stroke-width="0"/>
  <path d="M68.56,73.99c1.72-3.4-.52-4-.67-7.81s-.35-3.77-.35-7.56.64-3.78.52-7.57-.53-3.75-.56-7.55.72-3.76.75-7.57,2.63-6.62-.88-7.91c-3.7-1.36-3.41,2.72-6.44,5.25s-2.83,2.84-5.87,5.42-2.89,2.79-6.01,5.28-3.13,2.49-6.27,4.97-5.05.97-6.76,4.58c-1.88,3.96-.16,4.53-.14,8.92s.16,4.39.39,8.77c.24,4.38.27,4.37.29,8.75s.18,4.38.13,8.78-3.87,6.78-.07,9c3.42,1.99,2.85-3.1,5.95-5.56s3.39-2.04,6.53-4.39,3.21-2.26,6.39-4.58,2.89-2.73,6.44-4.42c3.79-1.81,4.85-1.25,6.64-4.8Z" fill="#f0b661" stroke-width="0"/>
  <path d="M5.2,28.89c-1.01-2.15.65-2.29,2.3-4.01,3.1-3.24,3.27-3.07,6.78-5.87s3.72-2.52,7.4-5.08,3.58-2.71,7.24-5.36,2.68-4.74,7.19-5.03c3.87-.25,2.95,2.03,5.95,4.48s2.94,2.48,6,4.8,3.21,2.12,6.29,4.42,3.14,2.23,6.22,4.53,5.64.95,5.7,4.6c.07,3.86-2.77,2.72-5.7,5.22s-3.55,2.06-6.61,4.71c-3.06,2.65-2.61,3.15-5.68,5.79s-3.04,2.66-6.07,5.34-2,4.97-6.09,5.32-3.15-2.16-6.26-4.59-3.38-2.02-6.37-4.52-2.75-2.78-5.81-5.2-2.8-2.75-6.27-4.54-4.51-1.4-6.21-5.02Z" fill="#7fd4fc" stroke-width="0"/>
  <path d="M36.38,98.95c-.09-3.8-.2-3.79-.38-7.59s.2-3.82.08-7.63-.39-3.79-.26-7.59.47-3.8.43-7.61-.59-3.79-.62-7.61-1.26-4.21.52-7.58c1.92-3.64,3.17-2.59,6.39-5.15s2.97-2.91,6.28-5.35,3.54-2.16,6.8-4.67,3.22-2.57,6.35-5.25,3.04-2.79,6.13-5.54" fill="none" stroke="#2b496d" stroke-miterlimit="10" stroke-width="6.5"/>
  <path d="M36.58,52.68c-3.39-2.36-3.78-1.81-7.11-4.25s-3.56-2.18-6.68-4.87-2.67-3.2-5.93-5.75-3.41-2.31-6.69-4.85-3.37-2.43-6.38-5.28" fill="none" stroke="#2b496d" stroke-miterlimit="10" stroke-width="6.5"/>
  <path d="M33.62,4.11c-4.17,1.68-3.8,2.42-7.39,5.11s-3.71,2.57-7.1,5.52-3.17,3.19-6.69,6.02-4.09,2.1-7.42,5.14c-1.43,1.3-1.42,1.74-1.63,3.66-.45,4.16.34,4.17.37,8.35s-.36,4.17-.36,8.34-.02,4.18.13,8.36.45,4.15.34,8.33-.78,4.19-.34,8.36c.2,1.84.38,2.07,1.68,3.38,2.56,2.59,2.85,2.32,5.68,4.6s3.18,1.86,5.96,4.21,2.78,2.35,5.62,4.63,2.43,2.83,5.39,4.97,3.11,1.88,6.44,3.39c1.97.9,2.17,1.9,4.19,1.1,3.39-1.34,3.18-1.98,5.94-4.35s2.1-3.15,4.93-5.47,2.9-2.24,5.86-4.38,3.1-1.9,5.85-4.3,3.04-2.14,5.52-4.85c1.22-1.33,1.41-1.24,1.76-3.01.79-4.1.72-4.11.63-8.28s-.34-4.17-.44-8.34-.75-4.17-.69-8.34.39-4.17.45-8.35c.06-4.17,1.07-4.27.32-8.37-.32-1.72-1.24-1.29-2.43-2.56-3.07-3.29-2.75-3.61-6.19-6.51s-3.75-2.49-7.29-5.24-3.23-3.17-6.85-5.82-3.47-2.96-7.29-5.34c-2.05-1.28-2.76-.81-4.94.07Z" fill="none" stroke="#2b496d" stroke-miterlimit="10" stroke-width="6.5"/>
</svg>