<?xml version="1.0" encoding="UTF-8"?>
<svg id="Layer_1" data-name="Layer 1" xmlns="http://www.w3.org/2000/svg" viewBox="0 0 68.26 121.4">
  <path d="M34.34.01c-4.04-.1-4.07.33-8.02,1.21s-4.07.64-7.65,2.51-3.62,1.88-6.69,4.46-2.99,2.73-5.3,6.02-2.57,3.24-3.9,7.03-.72,3.95-1.47,7.86S.19,33.01.06,37c-.12,3.67-.09,3.71.31,7.35s.4,3.72,1.51,7.25,1.77,3.22,3.55,6.48,1.14,3.61,3.17,6.68,2.49,2.74,4.22,5.98c1.81,3.41,1.27,3.59,2.58,7.22s1.36,3.59,2.57,7.23-.04,4.63,3.12,7c2.74,2.05,3.1-.49,6.52-.57s3.37.7,6.73.72,3.35.05,6.71.15,4.08,2.22,6.72,0c3.07-2.59,1.03-3.72,2.14-7.59s.67-3.87,2.22-7.4,2.26-3.17,4.19-6.52c1.83-3.17,1.4-3.41,3.31-6.53s2.49-2.82,4.27-6.04,2.16-3.18,3.26-6.71.7-3.7,1-7.39-.22-3.67-.26-7.32c-.04-3.98.72-4.07.05-7.99s-1.01-3.9-2.46-7.61-.83-4.19-3.15-7.43-2.75-3.03-5.71-5.69-2.95-2.93-6.53-4.76-3.85-1.2-7.72-2.35S38.38.11,34.34.01Z" fill="#fdd940" stroke-width="0"/>
  <g>
    <path d="M38.68,118.15c-.26,0-.63-.06-1.1-.13-.74-.12-1.75-.28-3.13-.32-.67-.02-1.23-.03-1.72-.03h-.6c-1.28,0-1.52,0-3.33-.93l-.61-.31q-2.23-1.15-3.64-3.17c-.88-1.27-.94-1.62-1.11-2.68-.13-.77-.3-1.84-.78-3.33-.44-1.38-.8-2.25-1.09-2.96-.45-1.11-.66-1.61-.9-3.54-.15-1.18-.32-2.04-.46-2.73-.28-1.39-.35-1.72.14-3.51.29-1.07.44-1.42.51-1.53.06-.04.39-.24,1.42-.66,1.25-.52,1.81-.58,2.13-.58s.69.06,1.21.15c.87.15,2.06.36,3.75.36.18,0,.37,0,.57,0,.7-.02,1.29-.02,1.8-.02.78,0,1.38.02,1.93.03.52.01,1.01.03,1.55.03,1.11,0,2.29-.05,3.84-.18,1.38-.11,2.38-.27,3.19-.4.64-.1,1.1-.18,1.47-.18.4,0,1.03.09,2.6.75.39.16,1.42.59,1.63.78.02.04.17.33.48,1.45.46,1.7.39,2.05.12,3.35-.15.75-.35,1.68-.49,3-.26,2.41-.42,2.92-.89,4.43-.19.59-.41,1.31-.69,2.27l-.33,1.16c-.64,2.27-.65,2.31-2.16,4.53-.66.97-1.09,1.73-1.43,2.35-.68,1.21-.75,1.34-2.17,2.01-1.16.55-1.55.55-1.72.55Z" fill="#5298cc" stroke-width="0"/>
    <path d="M43.7,94.77c.11.02.5.12,1.38.49.08.03.16.07.23.1.21.77.22,1.04.22,1.04h0c0,.11-.09.5-.15.79-.16.77-.38,1.83-.54,3.31-.23,2.09-.32,2.39-.76,3.81-.19.61-.42,1.35-.71,2.35-.13.44-.24.83-.33,1.18q-.5,1.79-1.72,3.57c-.74,1.09-1.23,1.96-1.58,2.59-.08.13-.16.29-.23.41-.11.06-.27.14-.5.25-.22.1-.38.17-.48.21-.13-.02-.3-.05-.44-.07-.82-.13-1.95-.31-3.53-.36-.71-.02-1.3-.03-1.82-.03h-.34s-.27,0-.27,0c-.31,0-.52,0-.63,0-.11-.04-.45-.17-1.2-.56l-.62-.32c-.58-.3-1.23-.63-1.44-.77-.1-.11-.37-.43-1.01-1.36-.36-.53-.46-.75-.46-.75,0,0,0,0,0,0-.02-.09-.07-.39-.11-.6-.13-.83-.34-2.07-.89-3.8-.48-1.5-.88-2.48-1.17-3.2-.39-.96-.5-1.21-.68-2.71-.16-1.3-.36-2.26-.5-2.97-.07-.33-.15-.74-.16-.85,0-.01,0-.28.25-1.16,0-.01,0-.02,0-.03.01,0,.02,0,.03-.01.53-.22.81-.3.91-.32.14.02.41.06.62.1.93.16,2.33.4,4.3.4.21,0,.43,0,.66,0,.67-.02,1.23-.02,1.71-.02.74,0,1.32.02,1.85.03.55.01,1.07.03,1.64.03,1.19,0,2.46-.06,4.09-.18,1.51-.12,2.63-.3,3.45-.43.34-.05.75-.12.92-.13M43.73,88.27c-1.26,0-2.41.39-4.91.58-1.66.13-2.7.17-3.59.17-1.11,0-1.97-.06-3.48-.06-.53,0-1.15,0-1.88.03-.17,0-.33,0-.49,0-2.47,0-3.55-.51-4.95-.51-.87,0-1.86.2-3.38.83-2.68,1.12-3.05,1.54-3.81,4.34-.97,3.57-.23,3.83.23,7.5.46,3.66,1,3.56,2.12,7.08,1.1,3.44.25,3.91,2.31,6.88,2,2.89,2.3,2.9,5.42,4.52,2.39,1.24,3.11,1.3,4.81,1.3.19,0,.4,0,.61,0,.45,0,.98,0,1.6.02,2.14.07,3.18.46,4.33.46.83,0,1.72-.2,3.11-.86,3.29-1.56,2.84-2.46,4.89-5.46,2.07-3.03,1.92-3.1,2.93-6.62,1.02-3.57,1.29-3.56,1.69-7.25.4-3.69,1.25-3.97.27-7.55-.78-2.88-1.24-3.23-3.99-4.38-1.82-.76-2.87-1-3.86-1h0Z" fill="#2b496d" stroke-width="0"/>
  </g>
  <path d="M19.43,104.33c3.82.1,3.82.29,7.65.27s3.81-.47,7.63-.66,3.84-.5,7.67-.45,3.78,1.01,7.61,1.37" fill="none" stroke="#2b496d" stroke-miterlimit="10" stroke-width="6.5"/>
  <path d="M30.44,90.67c-.42-3.96-1.21-3.87-1.63-7.83s-.21-3.97-.69-7.92-.12-3.99-.46-7.96-.14-3.98-.4-7.96-1.08-3.91-1.42-7.88.34-4.02.07-7.98" fill="none" stroke="#2b496d" stroke-miterlimit="10" stroke-width="6.5"/>
  <path d="M38.58,92.33c.5-3.94.52-3.94,1.14-7.86s1.07-3.86,1.49-7.82-.1-4.01.19-7.99-.12-4.05.59-7.96,1.04-3.87,1.8-7.79,1.42-3.79,2-7.72" fill="none" stroke="#2b496d" stroke-miterlimit="10" stroke-width="6.5"/>
  <path d="M53.97,43.36c-4,1.37-3.95,1.61-8.11,2.4-.82.16-.67-.38-1.35-.86-3.29-2.32-3.03-2.71-6.68-4.42-1.6-.75-1.63-.58-3.3.01-2.72.97-2.24,1.89-4.97,2.83-1.59.55-1.85.37-3.46-.14-4.06-1.28-3.83-1.92-7.76-3.56" fill="none" stroke="#2b496d" stroke-linecap="round" stroke-miterlimit="10" stroke-width="6.5"/>
</svg>