<?xml version="1.0" encoding="UTF-8"?>
<svg id="Layer_1" data-name="Layer 1" xmlns="http://www.w3.org/2000/svg" xmlns:xlink="http://www.w3.org/1999/xlink" viewBox="0 0 46.99 124.44">
  <defs>
    <clipPath id="clippath-1">
      <path d="M30.22,117.99c-5.63.58-5.7.45-11.32-.22-2.88-.34-3.14-.06-5.2-2.1s-1.38-2.38-1.86-5.26c-.68-4.08-.25-4.06-.25-8.19s.15-4.13.1-8.26-.7-4.12-.87-8.25-.29-4.13-.29-8.26-.15-4.14-.02-8.27,1.11-4.11,1.13-8.25-.52-4.13-.54-8.27.2-4.13.23-8.26.24-4.14.15-8.28-1.26-4.16-.88-8.28c.17-1.83,1.15-1.59,1.81-3.31,1.24-3.21.38-3.6,1.97-6.65s2.54-2.51,4.18-5.54-.14-4.24,2.71-6.15,3.56-1.64,6.48.11,1.96,2.63,3.58,5.64,1.32,3.16,2.84,6.23,1.88,2.91,3.09,6.11c.65,1.72.87,1.74.93,3.58.14,4.13-.67,4.13-.7,8.26s-.03,4.15.16,8.28,1.16,4.11,1.13,8.24-1.22,4.11-1.32,8.25.61,4.13.77,8.26-.25,4.14-.16,8.28.53,4.12.49,8.25.18,4.13.1,8.26-.81,4.11-1,8.24.49,4.17-.17,8.26c-.47,2.91-.21,3.07-1.77,5.57s-2.55,1.65-5.5,1.96Z" fill="#feb14f" stroke="#2b496d" stroke-miterlimit="10" stroke-width="6.5"/>
    </clipPath>
  </defs>
  <path d="M30.22,117.99c-5.63.58-5.7.45-11.32-.22-2.88-.34-3.14-.06-5.2-2.1s-1.38-2.38-1.86-5.26c-.68-4.08-.25-4.06-.25-8.19s.15-4.13.1-8.26-.7-4.12-.87-8.25-.29-4.13-.29-8.26-.15-4.14-.02-8.27,1.11-4.11,1.13-8.25-.52-4.13-.54-8.27.2-4.13.23-8.26.24-4.14.15-8.28-1.26-4.16-.88-8.28c.17-1.83,1.15-1.59,1.81-3.31,1.24-3.21.38-3.6,1.97-6.65s2.54-2.51,4.18-5.54-.14-4.24,2.71-6.15,3.56-1.64,6.48.11,1.96,2.63,3.58,5.64,1.32,3.16,2.84,6.23,1.88,2.91,3.09,6.11c.65,1.72.87,1.74.93,3.58.14,4.13-.67,4.13-.7,8.26s-.03,4.15.16,8.28,1.16,4.11,1.13,8.24-1.22,4.11-1.32,8.25.61,4.13.77,8.26-.25,4.14-.16,8.28.53,4.12.49,8.25.18,4.13.1,8.26-.81,4.11-1,8.24.49,4.17-.17,8.26c-.47,2.91-.21,3.07-1.77,5.57s-2.55,1.65-5.5,1.96Z" fill="#feb14f"/>
  <g clip-path="url(#clippath-1)">
    <g>
      <path d="M4.65,4.03c2.73-2.5,3.87.51,7.57.55s3.8-.38,7.62-.63,3.81-.68,7.65-.88,3.86-.06,7.68.08,4.71-1.65,7.26,1.17.1,3.51.18,7.31.22,3.82.28,7.67,2.2,4.61-.48,7.25-3.49.74-7.24.66-3.81-.56-7.64-.55-3.81.32-7.64.35-3.81-.49-7.64-.59-4.57,2.72-7.22.11-.26-3.49-.35-7.22,1-4.02.14-7.76c-.91-3.95-2.89-5-.15-7.51Z" fill="#f6dcac" stroke-width="0"/>
      <path d="M4.65,4.03c2.73-2.5,3.87.51,7.57.55s3.8-.38,7.62-.63,3.81-.68,7.65-.88,3.86-.06,7.68.08,4.71-1.65,7.26,1.17.1,3.51.18,7.31.22,3.82.28,7.67,2.2,4.61-.48,7.25-3.49.74-7.24.66-3.81-.56-7.64-.55-3.81.32-7.64.35-3.81-.49-7.64-.59-4.57,2.72-7.22.11-.26-3.49-.35-7.22,1-4.02.14-7.76c-.91-3.95-2.89-5-.15-7.51Z" fill="none" stroke="#2b496d" stroke-miterlimit="10" stroke-width="6.5"/>
    </g>
    <g>
      <path d="M37.9,15.71c-3.29,2.88-4.47-.55-8.84-.41s-4.49.44-9.01.46-5.43,2.76-8.61-.3c-2.95-2.83-.6-3.87-.72-7.96-.13-4.36-3.13-5.7-.02-8.76,3.32-3.26,4.7-.51,9.35-.33S24.53-.14,29.06-.08s5.94-4.33,9.45-1.28c3.28,2.84-.68,4.55.1,8.82s2.34,5.59-.71,8.27Z" fill="#2b496d" stroke-width="0"/>
      <path d="M37.9,15.71c-3.29,2.88-4.47-.55-8.84-.41s-4.49.44-9.01.46-5.43,2.76-8.61-.3c-2.95-2.83-.6-3.87-.72-7.96-.13-4.36-3.13-5.7-.02-8.76,3.32-3.26,4.7-.51,9.35-.33S24.53-.14,29.06-.08s5.94-4.33,9.45-1.28c3.28,2.84-.68,4.55.1,8.82s2.34,5.59-.71,8.27Z" fill="none" stroke="#f6dcac" stroke-miterlimit="10" stroke-width="6.5"/>
    </g>
    <g>
      <path d="M42.67,121.13c-.2-.08-.49-.21-.71-.32-1.1-.51-2.77-1.28-5.01-1.28h-.26c-1.93.05-2.99.14-3.93.22-1.03.09-1.92.16-3.91.17,0,0-2.72.02-3.26.02-1.19,0-2.03-.02-4.5-.1-3.2-.11-3.83-.12-6.02-.17l-2.19-.05c-2.09,0-3.58.6-4.68,1.04-.23.09-.53.22-.73.28-.05-.04-.12-.08-.2-.16.05-.15.11-.32.16-.46.37-1.03.94-2.58.86-4.6-.06-1.57-.16-2.53-.25-3.3-.11-1.06-.19-1.76-.11-3.69.06-1.51.2-2.22.36-3.04.2-.99.42-2.11.46-4.28.04-2.23-.66-3.77-1.12-4.79-.02-.05-.05-.11-.08-.17.35-.35.57-.5.66-.56.19.02.55.1.88.17.91.2,2.15.47,3.81.47h.17c.93-.01,1.65-.02,2.24-.02,1.34,0,2.07.03,3.53.08l2.01.07c1.53.05,2.21.25,3.08.49,1.14.32,2.43.69,4.92.69h0c2.34,0,3.48-.17,4.59-.34.89-.13,1.73-.26,3.42-.3,2.17-.05,3.76-.71,4.92-1.19.29-.12.66-.28.89-.35.04.03.09.07.15.12-.07.16-.16.33-.23.48-.55,1.11-1.38,2.79-1.4,5.03-.03,2.39.01,3.3.07,4.56.03.69.06,1.52.1,2.81.03,1.19-.06,1.88-.15,2.61-.2,1.57-.3,2.87.3,5.39.34,1.45.82,2.59,1.16,3.42.1.24.22.53.31.77-.04.04-.09.09-.16.15-.05.05-.1.08-.13.11Z" fill="#5298cc" stroke-width="0"/>
      <path d="M11.92,99.77c.31.02.64.03.98.03h.21c.92-.01,1.62-.02,2.21-.02,1.27,0,1.94.02,3.4.08.55.02,1.21.04,2.03.07,1.13.04,1.52.15,2.31.37,1.51.43,3.08.81,5.79.81h.08c2.52,0,3.84-.2,5-.37.85-.13,1.53-.23,3.01-.27.36,0,.7-.03,1.03-.06-.02.28-.04.57-.04.87-.03,2.48.01,3.42.07,4.73.03.68.06,1.49.1,2.76.02.94-.04,1.46-.13,2.11-.2,1.56-.33,3.07.12,5.45-.37-.03-.75-.05-1.15-.05-.11,0-.23,0-.34,0-2.02.05-3.13.15-4.11.23-1,.08-1.79.15-3.66.16h-1.32c-.8.02-1.39.02-1.93.02-1.14,0-1.96-.02-4.38-.1-3.22-.11-3.88-.13-6.07-.18l-1.92-.04c-.11,0-.22,0-.32,0-.47,0-.91.02-1.33.06,0-.27,0-.55,0-.84-.07-1.67-.17-2.69-.26-3.51-.1-.99-.16-1.53-.1-3.23.05-1.25.15-1.79.3-2.53.21-1.07.48-2.4.52-4.86.01-.6-.02-1.17-.08-1.7M42.78,92.4c-1.65,0-3.21,1.51-6,1.58-3.94.09-3.95.64-7.85.64-.02,0-.04,0-.07,0-3.96,0-3.94-1.05-7.9-1.18-3-.1-3.73-.15-5.65-.15-.61,0-1.33,0-2.28.02-.05,0-.09,0-.14,0-2.26,0-3.53-.65-4.74-.65-.88,0-1.74.34-2.92,1.54-2.61,2.64.33,3.46.27,7.17-.07,3.65-.68,3.61-.82,7.25-.14,3.62.21,3.62.36,7.25.14,3.53-2.62,5,.03,7.33.88.77,1.6,1.04,2.29,1.04,1.55,0,2.92-1.36,5.51-1.36.06,0,.12,0,.17,0,3.96.09,3.96.08,7.92.22,2.41.08,3.35.11,4.61.11.81,0,1.75,0,3.29-.02,3.96-.03,3.95-.29,7.9-.39.06,0,.12,0,.17,0,2.72,0,4.18,1.66,5.84,1.66.66,0,1.36-.26,2.19-1.01,2.7-2.42.62-3.56-.32-7.5-.84-3.53.03-3.7-.06-7.33-.09-3.62-.2-3.63-.16-7.25.04-3.73,3.44-5.18.76-7.78-.9-.87-1.66-1.17-2.4-1.17h0Z" fill="#2b496d" stroke-width="0"/>
    </g>
  </g>
  <path d="M30.22,117.99c-5.63.58-5.7.45-11.32-.22-2.88-.34-3.14-.06-5.2-2.1s-1.38-2.38-1.86-5.26c-.68-4.08-.25-4.06-.25-8.19s.15-4.13.1-8.26-.7-4.12-.87-8.25-.29-4.13-.29-8.26-.15-4.14-.02-8.27,1.11-4.11,1.13-8.25-.52-4.13-.54-8.27.2-4.13.23-8.26.24-4.14.15-8.28-1.26-4.16-.88-8.28c.17-1.83,1.15-1.59,1.81-3.31,1.24-3.21.38-3.6,1.97-6.65s2.54-2.51,4.18-5.54-.14-4.24,2.71-6.15,3.56-1.64,6.48.11,1.96,2.63,3.58,5.64,1.32,3.16,2.84,6.23,1.88,2.91,3.09,6.11c.65,1.72.87,1.74.93,3.58.14,4.13-.67,4.13-.7,8.26s-.03,4.15.16,8.28,1.16,4.11,1.13,8.24-1.22,4.11-1.32,8.25.61,4.13.77,8.26-.25,4.14-.16,8.28.53,4.12.49,8.25.18,4.13.1,8.26-.81,4.11-1,8.24.49,4.17-.17,8.26c-.47,2.91-.21,3.07-1.77,5.57s-2.55,1.65-5.5,1.96Z" fill="none" stroke="#2b496d" stroke-miterlimit="10" stroke-width="6.5"/>
</svg>