<?xml version="1.0" encoding="UTF-8"?>
<svg id="Layer_1" data-name="Layer 1" xmlns="http://www.w3.org/2000/svg" viewBox="0 0 121.47 117.54">
  <g>
    <path d="M98.3,98.98c-1.16,0-1.84-.05-3.46-.18l-1.59-.13c-1.17-.09-1.98-.16-2.66-.22-1.66-.15-2.57-.23-5.51-.28-1.57-.03-2.4-.15-3.27-.27-.9-.13-1.83-.26-3.3-.26-.48,0-1.03.01-1.66.05-2.17.11-3.34.36-4.37.57-.97.2-1.73.36-3.52.41-.41.01-.77.02-1.1.02-1.29,0-1.94-.08-2.85-.19-.88-.11-1.98-.24-3.82-.3-1.69-.06-2.54-.19-3.45-.33-1.13-.17-2.3-.35-4.66-.36h-.21c-2.16,0-3.32.17-4.35.31-.9.13-1.76.25-3.49.27h-.77c-1.46,0-2.22-.05-3.11-.11-.96-.07-2.05-.15-4.05-.16h-2.23c-1.82,0-2.61.02-4.94.08l-.94.03c-2.05.06-3.17.22-4.16.37-.95.14-1.7.25-3.32.25h-1c-.77,0-1.39,0-1.92.02-.35,0-.67.02-.96.02-.81,0-1.46-.04-3.61-.6-1.26-.33-2.24-.51-3.02-.65-1.81-.33-2.08-.38-3.74-2.02-1.9-1.87-1.93-2.01-2.34-4.32-.11-.64-.25-1.37-.43-2.25-.54-2.52-.48-3.28-.37-4.78.07-.98.17-2.2.13-4.09-.04-2.38-.4-3.83-.69-4.99-.32-1.29-.48-1.94-.07-3.95q.84-4.09,3.48-6.64c1.68-1.62,2.02-1.68,3.86-2,.81-.14,1.82-.32,3.12-.64,2.02-.51,2.74-.6,3.6-.6.36,0,.75.01,1.21.03.62.02,1.35.05,2.29.05,2.02.02,2.86.14,3.92.28.94.13,2,.28,3.9.39.97.05,1.7.1,2.31.14,1.92.12,2.72.17,5.81.22.29,0,.57,0,.83,0,1.76,0,2.76-.12,3.72-.23.91-.11,1.77-.21,3.5-.21,1.64,0,2.42.14,3.32.31.99.18,2.1.39,4.04.39.23,0,.47,0,.72,0,2.45-.06,3.78-.45,4.85-.77.88-.26,1.58-.46,3.15-.52.24,0,.46-.01.67-.01,1.24,0,1.85.14,2.69.32,1,.22,2.25.5,4.45.55.59.01,1.1.02,1.55.02,1.31,0,2.15-.05,2.96-.09.9-.05,1.82-.1,3.56-.11,2.06,0,3.17-.1,4.15-.18.87-.07,1.63-.14,3.05-.14.23,0,.48,0,.75,0,1.74.02,2.6.12,3.52.22,1.01.11,2.06.22,4.01.22h.54c2.36-.03,3.59-.28,4.68-.5.9-.18,1.68-.34,3.36-.39l.82-.02c.77-.02,1.38-.04,1.9-.04,1.28,0,1.92.09,4.52.66,1.35.29,2.4.43,3.24.54,1.88.25,2.17.28,3.81,1.86,1.64,1.57,1.67,1.81,1.89,3.73.1.85.22,1.9.49,3.26.58,2.88.52,3.56.37,5.38-.07.84-.15,1.89-.2,3.36-.07,2.16.07,3.51.18,4.59.15,1.37.23,2.2-.25,4.51-.7,3.38-.77,3.48-2.54,6.13l-.7,1.06c-.96,1.46-1,1.47-2.77,1.69-.93.11-2.08.26-3.55.63-1.91.49-2.65.53-3.35.53-.3,0-.6,0-.94-.02-.49-.01-1.04-.03-1.71-.03-.41,0-.87,0-1.38.02-1.14.03-1.94.05-2.6.05Z" fill="#feb14f" stroke-width="0"/>
    <path d="M103.79,64.28c.9,0,1.25.02,3.83.58,1.49.32,2.65.48,3.5.59.36.05.81.11,1.01.15.11.08.41.3.98.84.45.43.68.69.79.83.04.23.08.6.11.92.1.86.23,2.04.53,3.53.49,2.43.46,2.78.32,4.48-.07.87-.16,1.96-.21,3.52-.08,2.39.08,3.93.2,5.05.13,1.23.18,1.7-.2,3.5q-.58,2.76-2.06,4.99c-.22.32-.45.68-.71,1.07-.05.08-.1.15-.14.21-.11.01-.22.03-.32.04-.96.12-2.28.28-3.95.71-1.67.43-2.14.43-2.55.43-.27,0-.54,0-.85-.02-.52-.01-1.09-.03-1.8-.03-.44,0-.93,0-1.48.02-1.18.04-1.93.05-2.51.05-1.04,0-1.63-.05-3.21-.17-.46-.04-.98-.08-1.6-.13-1.15-.09-1.95-.16-2.62-.22-1.73-.15-2.69-.24-5.74-.3-1.38-.02-2.07-.12-2.87-.24-.96-.14-2.05-.29-3.76-.29-.57,0-1.17.02-1.83.05-2.43.13-3.78.41-4.86.64-.87.18-1.45.3-2.94.34-.37.01-.71.02-1.01.02-1.09,0-1.61-.06-2.46-.16-.94-.11-2.11-.25-4.09-.32-1.51-.05-2.23-.17-3.07-.29-1.19-.18-2.53-.39-5.13-.4h-.22c-2.39,0-3.68.18-4.81.34-.87.12-1.55.22-3.07.24-.26,0-.51,0-.73,0-1.34,0-2.02-.05-2.88-.11-1.01-.07-2.16-.16-4.27-.16-.93,0-1.65,0-2.25,0-1.87,0-2.73.02-5.03.09l-.94.03c-2.24.06-3.52.25-4.55.4-.88.13-1.46.22-2.85.22h-.33c-.23,0-.45,0-.65,0-.8,0-1.45.01-2,.03-.33,0-.61.02-.89.02-.5,0-.89,0-2.79-.49-1.38-.36-2.46-.56-3.25-.7-.36-.07-.8-.15-.99-.2-.11-.07-.43-.31-1.07-.94-.79-.78-1.07-1.13-1.16-1.26-.07-.24-.17-.84-.26-1.32-.11-.63-.25-1.41-.45-2.35-.44-2.07-.41-2.52-.3-3.86.08-.99.18-2.35.14-4.39-.05-2.75-.49-4.53-.78-5.71-.27-1.08-.3-1.22-.04-2.51.26-1.25.55-2.67.72-3.01.08-.16.47-.62,1.84-1.95.68-.66,1-.88,1.09-.93.18-.05.67-.14,1.07-.21.82-.14,1.94-.34,3.36-.7,1.97-.5,2.35-.5,2.8-.5.33,0,.68.01,1.1.03.64.02,1.39.05,2.37.06,1.81.02,2.49.11,3.51.25.95.13,2.13.3,4.16.41.95.05,1.68.1,2.28.14,1.98.12,2.79.17,5.97.23.32,0,.61,0,.89,0,1.95,0,3.09-.13,4.1-.25.88-.1,1.58-.19,3.13-.19,1.33,0,1.88.1,2.71.26,1.07.2,2.4.44,4.63.44.25,0,.52,0,.8,0,2.88-.07,4.51-.55,5.69-.9.79-.23,1.18-.35,2.34-.39.2,0,.38-.01.56-.01.89,0,1.21.07,1.99.25,1.08.24,2.57.57,5.09.63.62.01,1.15.02,1.62.02,1.4,0,2.28-.05,3.14-.1.89-.05,1.73-.1,3.38-.1,2.2,0,3.38-.1,4.42-.19.83-.07,1.49-.13,2.77-.13.22,0,.45,0,.7,0,1.59.02,2.34.1,3.22.2,1.05.11,2.23.24,4.36.24.18,0,.36,0,.56,0,2.68-.03,4.13-.32,5.3-.56.84-.17,1.4-.29,2.79-.32l.83-.02c.74-.02,1.32-.03,1.82-.03M103.79,57.78c-.71,0-1.57.03-2.8.06-4.02.1-3.97.84-7.99.88-.17,0-.34,0-.5,0-3.51,0-3.66-.39-7.49-.44-.28,0-.55,0-.79,0-3.23,0-3.48.32-7.2.32-3.43,0-3.92.2-6.52.2-.43,0-.91,0-1.48-.02-3.72-.08-3.98-.88-7.22-.88-.24,0-.5,0-.78.01-4,.14-3.96,1.19-7.97,1.28-.23,0-.44,0-.65,0-3.36,0-3.58-.7-7.34-.7h-.01c-3.72,0-3.98.44-7.22.44-.24,0-.49,0-.77,0-4-.07-4-.13-8-.36-4-.23-3.98-.64-7.98-.67-1.69-.02-2.67-.08-3.54-.08-1.19,0-2.15.13-4.39.69-4.42,1.12-5.16.29-8.44,3.45-3.35,3.23-3.48,3.77-4.41,8.33-.96,4.7.61,4.84.69,9.64.08,4.79-.7,4.81.3,9.49.95,4.46.43,5.02,3.68,8.21,3.22,3.16,3.86,2.36,8.22,3.5,2.27.59,3.22.7,4.42.7.74,0,1.58-.04,2.88-.04.19,0,.38,0,.59,0,.14,0,.27,0,.4,0,3.61,0,3.72-.51,7.58-.62,3.08-.09,3.79-.11,5.79-.11.59,0,1.3,0,2.22,0,3.71.02,3.97.28,7.18.28.25,0,.52,0,.81,0,3.94-.05,3.99-.58,7.8-.58.06,0,.13,0,.19,0,4,.02,4,.54,8,.69,3.55.13,3.94.49,6.79.49.35,0,.75,0,1.19-.02,4-.11,3.97-.78,7.96-.99.57-.03,1.06-.04,1.49-.04,2.59,0,3.09.46,6.51.53,4.01.07,3.98.19,7.98.5,2.82.22,3.65.32,5.31.32.69,0,1.52-.02,2.7-.05.48-.01.9-.02,1.28-.02,1.14,0,1.91.05,2.65.05,1.09,0,2.11-.11,4.16-.63,4.39-1.12,5.71.14,8.23-3.68,2.5-3.79,2.78-3.87,3.71-8.32.98-4.7-.04-4.86.13-9.66.16-4.79.71-4.8-.23-9.49-.92-4.6.07-5.46-3.32-8.7-3.32-3.17-4.12-2.25-8.61-3.22-2.71-.59-3.59-.73-5.21-.73h0Z" fill="#2b496d" stroke-width="0"/>
  </g>
  <g>
    <path d="M88.63,114.29c-.42,0-.85-.02-1.38-.05-.64-.03-1.4-.07-2.41-.1-.59-.01-1.09-.02-1.54-.02-1.15,0-1.92.04-2.65.08-.65.04-1.29.07-2.26.07-.42,0-.9,0-1.46-.02-2.42-.07-3.38-.07-4.64-.07,0,0-2.46,0-3.32,0-1.67,0-2.55-.09-3.41-.17-.85-.08-1.73-.16-3.14-.16-.43,0-.91,0-1.46.02-1.85.06-2.84.09-3.77.13-1.06.04-2.03.08-4.13.14l-1.59.05c-1.28.04-2.02.06-2.93.06-.79,0-1.7-.02-3.21-.05-.61-.01-1.13-.02-1.59-.02-.97,0-1.65.03-2.3.05-.52.02-1.01.04-1.63.04s-1.32-.02-2.31-.07h-.16q-3.66-.19-7.3-.86c-1.09-.2-2.12-.29-3.26-.29-.45,0-.87.01-1.27.03-.28,0-.55.02-.8.02h-.01c-.65,0-1.05,0-2.15-1.05-1.52-1.44-1.54-1.75-1.68-3.74-.07-.94-.15-2.11-.42-3.6-.29-1.58-.15-2.1.14-3.14.28-1.05.67-2.48.64-4.82-.03-2.15-.18-3.32-.31-4.36-.13-1.04-.24-1.95-.21-3.96.03-2.23-.02-3.36-.06-4.45-.04-1.03-.09-2.01-.06-4,.03-2.47-.02-3.56-.08-4.81-.04-.9-.09-1.91-.11-3.69-.02-1.79.12-2.63.29-3.6.2-1.14.42-2.43.38-4.86-.04-2.21-.4-3.57-.67-4.57-.29-1.08-.42-1.57-.11-3.22.15-.81.26-1.5.36-2.1.42-2.62.44-2.72,2.49-4.67,1.88-1.79,2.11-1.82,4.3-2.16.72-.11,1.56-.24,2.6-.45,1.58-.31,2.36-.38,3.1-.38.31,0,.61.01.94.02.47.01.98.03,1.6.03.51,0,1.1-.01,1.8-.04.83-.04,1.47-.05,2.01-.05.83,0,1.39.03,2.1.08.89.05,1.9.11,3.64.13,1.83.01,2.6.15,3.58.32.99.17,2.11.37,4.19.46.4.02.77.02,1.11.02,1.72,0,2.77-.2,3.7-.37.83-.16,1.55-.29,2.96-.29h.26c1.61.02,2.49.1,3.34.17.83.07,1.68.15,3,.15.49,0,1.05,0,1.71-.03,2.2-.08,3.37-.29,4.39-.48.93-.17,1.74-.31,3.49-.38.28,0,.53-.01.77-.01,1.21,0,1.82.12,2.66.29.97.19,2.18.43,4.29.48.21,0,.42,0,.61,0,1.51,0,2.51-.14,3.32-.25.52-.07.9-.12,1.31-.12.54,0,1.2.09,2.06.27,1.64.35,2.88.45,3.88.52,1.74.13,2.05.15,3.43,1.56,1.45,1.49,1.47,1.78,1.56,3.68.05.9.1,2.03.33,3.48.26,1.68.12,2.3-.11,3.31-.25,1.08-.55,2.42-.5,4.71.05,2.15.14,3.25.23,4.32.09,1.04.17,2.02.2,4.09.03,1.98-.03,2.94-.1,3.96-.07,1.1-.14,2.24-.11,4.48.04,2.33.26,3.57.45,4.66.18.99.33,1.84.33,3.72,0,2.51-.04,3.46-.09,4.78-.04.88-.08,1.9-.12,3.58-.04,1.72.02,2.81.07,3.68.07,1.3.11,2.02-.26,4.27-.13.78-.23,1.44-.32,2.01-.38,2.56-.43,2.83-2.19,5.43q-.85,1.25-2.54,1.3c-1.02.02-2.43.06-4.19.42-1.85.38-2.58.45-3.28.45Z" fill="#fdd940" stroke-width="0"/>
    <path d="M77.72,48.44c.9,0,1.25.07,2.02.22,1.04.21,2.46.49,4.85.54.24,0,.47,0,.69,0,1.73,0,2.9-.16,3.75-.28.46-.06.69-.09.87-.09.29,0,.77.07,1.38.2,1.86.4,3.28.51,4.32.59.25.02.57.04.78.07.11.09.29.25.56.53.32.33.5.54.59.66.02.23.04.6.06.91.05.93.11,2.2.36,3.81.16,1.07.13,1.23-.07,2.1-.26,1.12-.64,2.81-.58,5.51.05,2.25.15,3.46.24,4.52.09,1.03.16,1.91.19,3.86.03,1.85-.03,2.71-.09,3.7-.07,1.11-.15,2.37-.11,4.74.04,2.59.29,4.03.5,5.18.17.94.28,1.56.28,3.16,0,2.43-.03,3.31-.09,4.64-.04.89-.08,1.93-.13,3.64-.05,1.85.02,3.06.07,3.94.06,1.18.09,1.66-.22,3.55-.13.8-.24,1.48-.32,2.07-.31,2.05-.32,2.1-1.57,3.96,0,0,0,0-.01,0-1.08.03-2.72.07-4.76.49-1.73.36-2.23.39-2.62.39-.3,0-.68-.02-1.2-.05-.64-.03-1.44-.08-2.5-.1-.62-.02-1.15-.02-1.62-.02-1.24,0-2.08.04-2.83.08-.65.03-1.22.07-2.08.07-.39,0-.84,0-1.37-.02-2.34-.06-3.35-.08-4.72-.08h-.57s-.72,0-.72,0c-.55,0-1.2,0-2.03,0-1.52,0-2.31-.08-3.13-.15-.88-.08-1.88-.17-3.44-.17-.45,0-.97,0-1.55.03-1.86.06-2.86.1-3.79.13-1.05.04-2.02.08-4.1.14l-1.58.05c-1.29.04-2,.06-2.85.06-.71,0-1.56-.01-3.13-.05-.64-.02-1.19-.02-1.67-.02-1.04,0-1.77.03-2.42.05-.48.02-.93.04-1.51.04-.61,0-1.29-.02-2.14-.06h-.15q-3.46-.18-6.89-.81c-1.28-.23-2.5-.34-3.84-.34-.5,0-.95.02-1.39.03-.15,0-.3.01-.44.02-.05-.04-.11-.1-.17-.16-.33-.31-.5-.51-.6-.63-.03-.24-.06-.65-.09-.99-.07-.96-.17-2.28-.47-3.94-.16-.85-.15-.87.08-1.7.32-1.16.79-2.92.75-5.72-.04-2.32-.2-3.64-.33-4.7-.12-1-.21-1.73-.19-3.52.03-2.33-.02-3.5-.07-4.63-.04-.99-.08-1.92-.06-3.83.03-2.57-.02-3.74-.08-4.99-.04-.91-.08-1.86-.1-3.58-.02-1.49.09-2.1.25-3.01.21-1.22.48-2.73.43-5.47-.04-2.61-.49-4.26-.78-5.35-.23-.84-.23-.86-.06-1.79.16-.84.27-1.55.37-2.18.09-.56.2-1.24.27-1.52.1-.13.4-.5,1.25-1.31.81-.77,1.17-1.02,1.27-1.08.22-.06.8-.15,1.28-.22.72-.11,1.62-.25,2.74-.47,1.46-.29,2.02-.31,2.47-.31.27,0,.54,0,.84.02.5.02,1.04.03,1.7.03.63,0,1.27-.01,1.95-.04.73-.03,1.35-.05,1.87-.05.73,0,1.22.03,1.9.07.89.05,1.99.12,3.82.13,1.55,0,2.14.11,3.04.27,1.04.18,2.33.41,4.61.51.45.02.87.03,1.25.03,2.02,0,3.34-.25,4.3-.43.78-.15,1.25-.24,2.35-.24h.23c1.49.02,2.27.09,3.09.16.86.08,1.83.16,3.29.16.56,0,1.16-.01,1.83-.04,2.43-.09,3.77-.33,4.85-.52.88-.16,1.51-.27,3.03-.33.24,0,.45-.01.65-.01M77.72,41.94c-.27,0-.57,0-.89.02-3.96.14-3.93.7-7.89.85-.62.02-1.14.03-1.59.03-2.45,0-2.97-.28-6.3-.32-.1,0-.2,0-.3,0-3.32,0-3.73.66-6.65.66-.3,0-.62,0-.97-.02-3.95-.17-3.92-.76-7.88-.78-3.07-.02-3.76-.2-5.76-.2-.58,0-1.27.02-2.15.05-.65.03-1.19.04-1.66.04-1.07,0-1.79-.05-2.54-.05-.94,0-1.93.08-3.74.44-4.52.9-5.15.26-8.49,3.43-3.43,3.25-2.95,3.89-3.81,8.53-.77,4.15.66,4.22.73,8.44.07,4.22-.73,4.23-.68,8.45.05,4.22.23,4.21.18,8.43-.05,4.23.19,4.22.13,8.44-.06,4.22.45,4.2.52,8.42.07,4.21-1.47,4.33-.72,8.48.84,4.61-.33,5.88,3.07,9.11,1.78,1.69,2.98,1.95,4.4,1.95.63,0,1.29-.05,2.07-.05s1.63.05,2.67.24c3.9.71,3.92.71,7.88.91,1.06.05,1.83.07,2.47.07,1.41,0,2.2-.09,3.93-.09.44,0,.93,0,1.51.02,1.54.04,2.48.05,3.29.05,1.26,0,2.2-.04,4.61-.11,3.96-.11,3.95-.15,7.91-.27.51-.02.96-.02,1.35-.02,2.66,0,3.1.31,6.54.33.84,0,1.5,0,2.06,0,.49,0,.91,0,1.29,0,1.23,0,2.17,0,4.54.07.6.02,1.1.02,1.55.02,2.08,0,2.78-.15,4.91-.15.42,0,.9,0,1.46.02,1.93.05,2.92.15,3.87.15s1.96-.11,3.94-.52c4.61-.95,6.13.8,8.76-3.08,2.6-3.85,2.25-4.15,3.01-8.73.7-4.16.14-4.18.24-8.4.1-4.23.22-4.21.22-8.45,0-4.23-.71-4.2-.78-8.43-.07-4.22.26-4.21.2-8.43-.06-4.23-.34-4.21-.43-8.43-.09-4.22,1.22-4.28.58-8.45-.7-4.55.44-5.63-2.77-8.93-3.25-3.33-4.4-2.02-8.95-3-1.21-.26-2.05-.35-2.75-.35-1.44,0-2.32.37-4.63.37-.17,0-.35,0-.54,0-3.63-.08-3.93-.77-7.02-.77h0Z" fill="#2b496d" stroke-width="0"/>
  </g>
  <path d="M61,46.63c.1-3.55-.06-3.56.09-7.11s.39-3.56.29-7.12-.11-3.59-.51-7.14" fill="none" stroke="#2b496d" stroke-miterlimit="10" stroke-width="6.5"/>
  <g>
    <path d="M64.79,26.43c-.36,0-.74-.03-1.19-.06-.66-.05-1.47-.11-2.5-.12-.36,0-.69,0-.99,0h-1.38c-1.37,0-1.69,0-3.72-1.11q-2.08-1.14-3.15-3.23c-.19-.38-.41-.8-.67-1.28q-1.26-2.37-1.29-4.91v-.98c-.02-.67-.04-1.24-.06-1.74-.08-2.08-.08-2.12,1.05-4.14q1.3-2.33,3.68-3.58l1.29-.69q2.47-1.32,5.22-1.34h.6q2.22,0,4.72,1.48l.31.18c1.85,1.09,2.01,1.33,2.92,2.63.37.53.81,1.16,1.42,1.96q1.2,1.56,1.14,3.53c-.02.5-.03,1.07-.04,1.74v.36q-.02,2.88-1.38,5.39c-.5.92-.85,1.67-1.13,2.27-.72,1.55-.82,1.75-2.46,2.74-1.52.91-1.95.91-2.4.91Z" fill="#fdd940" stroke-width="0"/>
    <path d="M61.68,6.5c.85,0,1.2.02,1.33.04.3.13,1.05.58,1.73.98l.31.19q1.24.74,1.91,1.69c.36.51.84,1.21,1.51,2.08.24.31.39.52.49.67,0,.23-.01.52-.02.77-.02.53-.04,1.12-.04,1.82v.36c0,.82-.01,1.74-.05,2.03-.12.34-.71,1.42-.93,1.84-.54,1-.91,1.8-1.21,2.44-.13.28-.28.61-.38.79-.11.08-.35.26-.81.53-.44.26-.7.39-.83.45-.21,0-.52-.03-.86-.05-.7-.05-1.57-.11-2.69-.13-.37,0-.72,0-1.04,0-.3,0-.57,0-.83,0h-.57c-.53,0-.7-.01-.72-.01-.03,0-.35-.11-1.43-.69-.74-.41-1.08-.63-1.22-.73-.14-.24-.39-.73-.6-1.14-.2-.39-.42-.82-.69-1.32-.67-1.25-.83-1.64-.85-1.73-.04-.21-.04-1-.05-1.69v-.99c-.02-.7-.05-1.29-.06-1.81-.01-.41-.03-.9-.03-1.13.06-.15.23-.51.67-1.31.52-.92.77-1.32.89-1.49.27-.17.9-.5,1.47-.8l.67-.35.64-.34c.71-.38,1.5-.8,1.72-.87.12-.03.54-.08,2.01-.09h.58M61.68,0c-.2,0-.41,0-.63,0-3.8.03-3.99.27-7.35,2.06-3.44,1.82-3.76,1.82-5.65,5.22-1.88,3.38-1.47,3.64-1.41,7.51.06,3.82-.11,3.99,1.68,7.36,1.83,3.43,1.71,3.95,5.12,5.83,2.53,1.39,3.38,1.51,5.28,1.51.41,0,.86,0,1.4,0,.29,0,.6,0,.94,0,1.72.03,2.79.19,3.74.19,1.2,0,2.21-.26,4.07-1.37,3.32-1.99,2.94-2.85,4.78-6.25,1.8-3.33,1.74-3.48,1.77-7.27.03-3.79.52-4.28-1.77-7.27-2.32-3.01-2-3.47-5.27-5.41C65.27.28,64.9,0,61.68,0h0Z" fill="#2b496d" stroke-width="0"/>
  </g>
  <path d="M52.02,75.32c-.65,4.82-3.08,7.07-7.9,6.42-4.73-.64-5.87-3.47-5.23-8.2s2.59-4.76,7.29-5.79c5.19-1.14,6.51,2.71,5.85,7.56Z" fill="#2b496d" stroke-width="0"/>
  <path d="M83.96,73.93c.32,4.85-1.61,7.55-6.47,7.87s-6.44-2.23-6.76-6.99,1.59-5.18,5.99-7.12c4.86-2.15,6.92,1.36,7.24,6.25Z" fill="#2b496d" stroke-width="0"/>
  <path d="M51.57,91.6c4.74,1.32,4.56,2.98,9.48,2.86s4.53-1.75,9.07-3.3" fill="none" stroke="#2b496d" stroke-linecap="round" stroke-miterlimit="10" stroke-width="6.5"/>
</svg>