<?xml version="1.0" encoding="UTF-8"?>
<svg id="Layer_1" data-name="Layer 1" xmlns="http://www.w3.org/2000/svg" viewBox="0 0 83.52 72.04">
  <path d="M9.16,68.79c-.27,0-.61-.06-1.03-.17q-2.76-.72-4-3.02-1.03-1.91-.33-4.28l.18-.62c.59-1.99.93-2.44,1.74-3.51.53-.7,1.18-1.56,2.02-2.95,1.17-1.94,1.71-2.7,2.39-3.67.53-.75,1.13-1.6,2.12-3.11,1.07-1.65,1.63-2.43,2.23-3.26.62-.86,1.25-1.75,2.43-3.56.97-1.49,1.53-2.19,2.13-2.92.73-.9,1.48-1.83,2.73-3.87,1.64-2.68,2.04-3.4,2.99-5.11.31-.57.69-1.24,1.19-2.15.89-1.58,1.36-2.52,1.77-3.34.52-1.04.93-1.86,2.11-3.78.94-1.53,1.46-2.41,1.92-3.2.61-1.04,1.09-1.86,2.34-3.82.97-1.52,1.45-2.54,1.84-3.36.52-1.08.77-1.63,2.15-3.1.56-.6,1-1.12,1.39-1.57q.97-1.14,2.51-1.17h.41q1.5,0,2.77,1.43c.28.32.6.67.95,1.06,1.23,1.33,1.42,1.84,1.81,2.86.33.87.78,2.06,1.82,3.77,1.29,2.13,2.01,3.04,2.77,4,.56.7,1.13,1.43,2.09,2.86,1.72,2.57,2.03,3.11,3.06,4.91.3.53.67,1.16,1.14,1.96.95,1.63,1.28,2.44,1.66,3.37.4.98.85,2.09,1.93,4.02,1.32,2.34,1.95,3.23,2.76,4.35.48.67,1.03,1.43,1.87,2.73,1.25,1.93,2.11,2.84,2.87,3.64.69.73,1.23,1.31,2.18,2.85.85,1.37,1.01,2.05,1.24,2.99.27,1.12.62,2.51,1.85,4.67,1.04,1.8,1.91,2.78,2.55,3.49.7.79,1.05,1.18,1.62,2.82l.26.76q.83,2.38.23,4.9c-.12.49-.22.75-.28.87-.28.09-.89.19-1.39.27-.68.11-1.54.25-2.51.49-.71.17-1.25.25-1.67.25-.36,0-.64-.06-1.24-.19-.85-.19-2.02-.45-3.86-.51-.43-.01-.82-.02-1.17-.02-1.56,0-2.49.11-3.38.22-.85.1-1.66.2-3.25.22h-.25c-1.38,0-2.03-.13-2.86-.3-.97-.2-2.08-.43-4.01-.43-.19,0-.39,0-.59,0-2,.04-3.01.12-4,.18-.95.07-1.84.13-3.68.17-1.01.02-1.76.05-2.38.07-.75.02-1.31.04-1.95.04-.77,0-1.67-.03-3.1-.09-1.57-.07-2.37-.23-3.21-.39-1.12-.22-2.27-.44-4.62-.45h-.24c-2.12,0-3.27.21-4.29.4-.87.16-1.62.3-3.22.32h-.54c-1.41,0-2.13-.06-2.98-.14-.89-.08-1.89-.17-3.64-.17h-.51c-2.28.02-3.68.57-4.7.97-.62.24-.84.32-1.16.32Z" fill="#aae8fe" stroke-width="0"/>
  <path d="M42.4,6.5s.03,0,.04,0c.1.11.21.23.31.34.29.33.62.7.99,1.1.8.87.84.98,1.16,1.81.35.93.89,2.33,2.08,4.3,1.4,2.31,2.22,3.34,3.01,4.33.54.68,1.05,1.32,1.93,2.64,1.66,2.48,1.96,3,2.95,4.73.31.53.67,1.16,1.14,1.97.83,1.43,1.09,2.07,1.45,2.96.41,1.02.93,2.28,2.11,4.39,1.4,2.49,2.12,3.49,2.95,4.65.48.67.98,1.37,1.79,2.61,1.41,2.17,2.42,3.24,3.22,4.1.63.67,1.01,1.07,1.78,2.33.58.94.65,1.24.85,2.06.38,1.56.84,3.16,2.19,5.51,1.21,2.1,2.25,3.27,2.94,4.04.56.63.62.69.97,1.71l.27.78c.19.54.4,1.14.48,1.44-.01.1-.04.24-.08.44-.6.1-1.28.23-2.05.42-.63.15-.87.16-.87.16-.09-.01-.36-.07-.56-.12-.93-.21-2.32-.52-4.47-.59-.47-.01-.89-.02-1.28-.02-1.76,0-2.83.13-3.77.25-.8.1-1.48.18-2.89.2h-.22c-1.04,0-1.46-.08-2.21-.24-1.01-.21-2.4-.49-4.66-.49-.21,0-.43,0-.66,0-2.08.05-3.13.12-4.15.19-.91.06-1.76.12-3.53.16-1.03.02-1.78.05-2.41.07-.71.02-1.24.04-1.84.04-.71,0-1.57-.03-2.95-.09-1.34-.06-1.96-.18-2.74-.33-1.14-.22-2.56-.49-5.21-.51h-.26c-2.42,0-3.79.25-4.88.45-.81.15-1.35.25-2.66.26-.18,0-.35,0-.51,0-1.25,0-1.88-.06-2.67-.13-.96-.09-2.05-.19-3.95-.19h-.54c-2.88.03-4.74.76-5.85,1.19-.04.02-.09.04-.14.05-.02,0-.03,0-.05-.01-.29-.08-.93-.24-1.38-.38-.13-.22-.32-.54-.58-1.04-.18-.32-.3-.56-.38-.74.09-.31.21-.71.31-1.06l.19-.62c.42-1.42.53-1.56,1.22-2.47.54-.72,1.28-1.7,2.21-3.23,1.11-1.84,1.6-2.52,2.27-3.47.52-.74,1.17-1.65,2.19-3.22,1.03-1.59,1.57-2.34,2.15-3.13.64-.89,1.3-1.81,2.52-3.69.87-1.35,1.36-1.95,1.93-2.65.76-.93,1.61-1.99,2.97-4.22,1.68-2.75,2.11-3.53,3.06-5.24.31-.56.68-1.23,1.18-2.13.92-1.65,1.43-2.66,1.84-3.47.51-1.01.87-1.74,1.98-3.54.95-1.55,1.48-2.45,1.95-3.24.6-1.01,1.07-1.81,2.28-3.72,1.08-1.69,1.63-2.86,2.04-3.71.44-.92.56-1.17,1.59-2.28.63-.67,1.11-1.24,1.49-1.69,0,0,.01-.01.02-.02.02,0,.05,0,.08,0,.12,0,.24,0,.35,0M42.4,0c-.15,0-.31,0-.47,0-3.78.07-3.64,1.01-6.22,3.78-2.82,3.02-2.15,3.45-4.36,6.94-2.22,3.49-2.12,3.53-4.29,7.06-2.16,3.52-1.93,3.63-3.95,7.24-2.01,3.59-1.97,3.64-4.12,7.15-2.15,3.52-2.57,3.26-4.81,6.72-2.24,3.46-2.41,3.35-4.66,6.81-2.25,3.45-2.44,3.35-4.57,6.87-2.13,3.53-2.93,3.27-4.1,7.22-1.06,3.59-1.38,4.07.4,7.36,1.83,3.38,2.32,3.65,6.04,4.62.74.19,1.34.27,1.85.27,2.08,0,2.81-1.26,5.89-1.29.17,0,.32,0,.48,0,3.19,0,3.5.32,6.62.32.18,0,.38,0,.58,0,3.77-.04,3.83-.72,7.47-.72.07,0,.14,0,.21,0,3.85.03,3.84.66,7.69.84,1.54.07,2.46.1,3.25.1,1.19,0,2.1-.06,4.4-.11,3.84-.09,3.83-.27,7.68-.35.18,0,.35,0,.52,0,3.24,0,3.5.73,6.87.73.1,0,.19,0,.29,0,3.44-.04,3.79-.44,6.59-.44.32,0,.68,0,1.08.02,2.78.08,3.57.7,5.2.7.63,0,1.39-.09,2.43-.35,3.85-.93,5.66-.17,6.58-4.04.88-3.72.66-3.85-.58-7.47-1.34-3.91-2.36-3.29-4.42-6.87-2.07-3.59-.97-4.22-3.15-7.74-2.18-3.53-2.83-3.08-5.09-6.56-2.25-3.46-2.5-3.31-4.52-6.9-2.02-3.59-1.54-3.87-3.61-7.43-2.08-3.56-2.01-3.61-4.3-7.04-2.3-3.44-2.64-3.19-4.78-6.73-2.15-3.54-1.21-4.1-4.01-7.15C45.99.8,45.82,0,42.4,0h0Z" fill="#2b496d" stroke-width="0"/>
</svg>