<?xml version="1.0" encoding="UTF-8"?>
<svg id="envelope" xmlns="http://www.w3.org/2000/svg" viewBox="0 0 256 256">
  <path d="M128,0C57.31,0,0,57.31,0,128s57.31,128,128,128,128-57.31,128-128S198.69,0,128,0ZM197.1,195.74c-3.74,3.74-8.72,5.8-14.04,5.8s-10.3-2.06-14.04-5.8l-41.02-41.02-41.02,41.02c-3.74,3.74-8.73,5.8-14.04,5.8s-10.3-2.06-14.04-5.8c-7.74-7.74-7.74-20.34,0-28.08l41.02-41.02-38.32-38.32c-3.74-3.74-5.8-8.73-5.8-14.04s2.06-10.3,5.8-14.04c7.74-7.74,20.33-7.74,28.07,0l38.32,38.32,38.32-38.32c7.74-7.74,20.33-7.74,28.08,0,7.74,7.74,7.74,20.34,0,28.08l-38.32,38.32,41.02,41.02c3.74,3.74,5.8,8.73,5.8,14.04s-2.06,10.3-5.8,14.04Z" fill="#fff" stroke-width="0"/>
</svg>