<?xml version="1.0" encoding="UTF-8"?>
<svg id="envelope" xmlns="http://www.w3.org/2000/svg" viewBox="0 0 256 256">
  <path d="M242.98,82.96l-94,61.4c-12.75,8.33-29.21,8.33-41.95,0L12.95,82.91c-5.57-3.64-12.95.36-12.95,7.01v90.77c0,14.77,11.97,26.74,26.74,26.74h202.52c14.77,0,26.74-11.97,26.74-26.74v-90.68c0-6.69-7.42-10.7-13.02-7.05Z" fill="#fff" stroke-width="0"/>
  <path d="M236.07,64.95l-90.17,58.9c-10.9,7.12-24.97,7.12-35.87,0L19.94,65c-7.45-4.87-4-16.44,4.89-16.44h206.36c8.87,0,12.3,11.54,4.88,16.39Z" fill="#fff" stroke-width="0"/>
</svg>