<?xml version="1.0" encoding="UTF-8"?>
<svg id="envelope" xmlns="http://www.w3.org/2000/svg" viewBox="0 0 256 256">
  <path d="M128,0C57.31,0,0,57.31,0,128s57.31,128,128,128,128-57.31,128-128S198.69,0,128,0ZM127.97,218.53c-10.96,0-19.85-8.89-19.85-19.85s8.89-19.85,19.85-19.85,19.85,8.89,19.85,19.85-8.89,19.85-19.85,19.85ZM157.75,67.25l-9.79,82.1c-.09.75-.12,1.5-.17,2.25-.27,4.87-2.31,9.41-5.79,12.9-3.76,3.76-8.74,5.83-14.03,5.83-10.57,0-19.24-8.31-19.82-18.74-.04-.74-.07-1.48-.16-2.22l-9.56-80.14c-.18-1.53-.26-3.09-.12-4.62,1.35-15.18,14.13-27.13,29.66-27.13,16.42,0,30.17,14.22,29.78,29.78h0Z" fill="#fff" stroke-width="0"/>
</svg>