<?xml version="1.0" encoding="UTF-8"?>
<svg id="github" xmlns="http://www.w3.org/2000/svg" viewBox="0 0 256 256">
  <path d="M129.25,3.17C59.3,2.5,1.23,58.95.02,128.9c-.99,57.53,35.97,106.56,87.51,123.72,6.4,1.18,8.75-2.77,8.75-6.15,0-2.54-.08-9.98-.14-18.59-.02-2.68-2.42-4.71-5.07-4.31-31.28,4.63-38.08-16.03-38.08-16.03-5.82-14.79-14.21-18.73-14.21-18.73-11.62-7.95.87-7.78.87-7.78,12.85.91,19.62,13.19,19.62,13.19,10.34,17.72,26.51,14.75,34.9,11.6,1.42-.53,2.44-1.78,2.74-3.26.74-3.7,1.93-6.81,3.37-9.35,1.5-2.64.05-5.99-2.95-6.5-26.01-4.37-50.99-17.39-50.99-62.23,0-13.04,4.36-23.86,11.59-32.52.95-1.13,1.24-2.67.8-4.07-1.53-4.9-3.55-15.4,1.06-28.96.61-1.78,2.3-3,4.18-2.97,4.64.08,14.47,1.87,30.36,12.31,1.05.69,2.34.9,3.56.59,9.66-2.5,19.92-3.75,30.12-3.8,10.2.05,20.47,1.3,30.15,3.8,1.22.31,2.51.1,3.56-.59,15.87-10.44,25.69-12.23,30.32-12.31,1.88-.03,3.57,1.19,4.18,2.97,4.62,13.56,2.6,24.07,1.07,28.96-.44,1.41-.14,2.94.8,4.07,7.25,8.67,11.57,19.49,11.57,32.53,0,44.87-24.94,57.8-50.96,62.13-2.98.5-4.6,3.84-3.09,6.46,2.52,4.36,4.29,10.42,4.29,18.27,0,17.13-.15,30.91-.15,35.12,0,3.4,2.3,7.4,8.79,6.14,50.84-16.95,87.46-64.9,87.46-121.43-.01-70.28-56.65-127.33-126.75-128Z" fill="#010101" fill-rule="evenodd" stroke-width="0"/>
</svg>