<?xml version="1.0" encoding="UTF-8"?>
<svg id="linkedin" xmlns="http://www.w3.org/2000/svg" viewBox="0 0 256 256">
  <path id="Path_2520" data-name="Path 2520" d="M209.17,218.13h-20.01c-4.95,0-8.96-4.01-8.96-8.96v-50.44c0-14.17-.25-32.4-19.73-32.4s-22.78,15.43-22.78,31.37v51.46c0,4.95-4.01,8.96-8.96,8.96h-19.99c-4.95,0-8.96-4.01-8.96-8.96v-104.24c0-4.95,4.01-8.96,8.96-8.96h18.49c4.95,0,8.96,4.01,8.96,8.96v4.66c-.01.88,1.12,1.22,1.62.5,7.78-11.14,21.13-17.67,34.81-17.17,38.45,0,45.53,25.29,45.53,58.18v58.06c-.01,4.95-4.02,8.96-8.97,8.96ZM56.96,79.26c-12.63,0-22.76-10.62-21.97-23.42.68-10.96,9.6-19.89,20.57-20.57,12.8-.79,23.42,9.34,23.42,21.97,0,12.16-9.85,22.01-22.01,22.01h0M66.95,218.13h-20.04c-4.95,0-8.96-4.01-8.96-8.96v-104.24c0-4.95,4.01-8.96,8.96-8.96h20.04c4.95,0,8.96,4.01,8.96,8.96v104.24c0,4.95-4.01,8.96-8.96,8.96ZM237.04.01H18.88C8.58-.1.13,8.16,0,18.47v219.05c.13,10.32,8.58,18.58,18.88,18.47h218.15c10.33.13,18.82-8.14,18.96-18.47V18.46C255.85,8.13,247.36-.14,237.04,0" fill="#010101" stroke-width="0"/>
</svg>