<?xml version="1.0" encoding="UTF-8"?>
<svg id="envelope" xmlns="http://www.w3.org/2000/svg" viewBox="0 0 256 256">
  <path d="M128,0C57.31,0,0,57.31,0,128s57.31,128,128,128,128-57.31,128-128S198.69,0,128,0ZM206.44,100.17c-.75.74-74.17,73.91-79.54,79.54-5.29,5.54-12.71,8.34-20.31,8.34-7.03,0-14.21-2.39-20-7.22l-.26-.24-30.51-30.51c-3.78-3.78-5.86-8.81-5.86-14.18s2.08-10.41,5.86-14.18c3.78-3.78,8.81-5.85,14.18-5.85s10.41,2.08,14.18,5.86l17.66,17.66c2.39,2.39,6.28,2.39,8.67,0l67.56-67.56c3.78-3.78,8.81-5.85,14.18-5.85s10.41,2.08,14.18,5.85h0c7.82,7.82,7.82,20.54,0,28.36Z" fill="#010101" stroke-width="0"/>
</svg>